<?xml version="1.0" encoding="UTF-8"?>
<svg id="Layer_1" data-name="Layer 1" xmlns="http://www.w3.org/2000/svg" viewBox="0 0 3000 1085.51">
  <defs>
    <style>
      .cls-1 {
        fill: #054697;
        stroke-width: 0px;
      }
    </style>
  </defs>
  <path class="cls-1" d="M794.43,894.46c5.68,16.22,15.81,29.6,30.4,40.15,14.61,10.54,30.83,15.8,48.67,15.8v7.28h-374.65v-7.28c20.28,0,36.91-8.52,49.88-25.55,12.98-17.04,16.22-35.69,9.72-55.96l-35.25-102.16h-233.54l-8.52,21.88c-4.06,13.79-6.08,27.18-6.08,40.15,0,34.06,11.95,62.84,35.86,86.36,23.93,23.52,52.92,35.28,86.97,35.28v7.28H101.12v-7.28c35.68-4.88,68.72-20.69,99.13-47.44,30.41-26.77,52.1-57.17,65.09-91.23L520.77,106.28c24.32,69.74,45.4,130.55,63.24,182.46,17.84,51.9,33.84,97.91,48.02,138.05,14.2,40.12,27.17,77.42,38.92,111.88,11.77,34.47,23.73,68.93,35.89,103.39,12.18,34.47,25.16,71.97,38.95,112.53,13.78,40.54,30,87.16,48.64,139.87ZM292.1,759.44h228.67c-9.74-28.37-18.46-53.71-26.17-76.02-7.7-22.3-15.6-44.8-23.7-67.5-8.11-22.72-17.03-48.25-26.76-76.63-9.74-28.37-21.5-62.42-35.28-102.16l-116.76,322.31Z"/>
  <path class="cls-1" d="M1083.92,128.16v762.63c0,14.61,4.85,27.59,14.57,38.95,9.73,11.34,21.49,18.23,35.28,20.68v7.28h-282.18v-7.28c13.78-2.45,25.54-9.34,35.28-20.68,9.73-11.36,14.6-24.34,14.6-38.95V203.59c0-14.61-4.87-27.58-14.6-38.92-9.74-11.36-21.5-18.25-35.28-20.68v-7.31l207.99-30.4h3.67c13.78,0,20.68,7.3,20.68,21.88Z"/>
  <path class="cls-1" d="M1403.8,913.91c13.78,0,25.94-3.64,36.48-10.93v8.49c-14.59,10.56-34.46,21.91-59.6,34.07-25.15,12.16-54.74,18.24-88.79,18.24-37.31,0-69.34-13.37-96.11-40.12-26.75-26.77-40.12-58.8-40.12-96.11v-459.77h-49.88v-7.28c45.41,0,87.78-9.92,127.1-29.78,39.34-19.88,71.98-46.43,97.93-79.69h7.31v109.47h79.04v7.28h-79.04v480.45c0,17.84,6.48,33.26,19.44,46.23,12.98,12.96,28.39,19.44,46.23,19.44Z"/>
  <g>
    <path class="cls-1" d="M2394.93,436.23c0,25.94-9.35,48.26-28,66.92-18.63,18.63-40.94,27.96-66.87,27.96s-47.06-9.32-65.71-27.96c-18.64-18.66-27.97-40.97-27.97-66.92,0-8.11.6-14.18,1.83-18.24,1.21-4.06,1.82-8.53,1.82-13.39,0-12.16-6.48-18.25-19.45-18.25-11.36,0-26.77,4.87-46.23,14.6v496.29c0,14.61,4.85,27.59,14.6,38.95,9.73,11.33,21.49,18.24,35.28,20.68v7.28h-233.61v-54.45c.84-4.01,1.26-8.17,1.26-12.46v-433.02c0-4.51-.42-8.85-1.26-12.98v-1.84h-.4c-2.17-9.21-6.49-17.45-12.94-24.7-9.73-10.95-21.49-17.64-35.28-20.09v-7.29l208.03-30.4h3.64c6.48,0,11.54,2.02,15.19,6.08s5.49,8.91,5.49,14.6v6.07c21.89-11.36,47.43-23.11,76.63-35.27,29.21-12.16,55.56-17.44,79.08-15.84,25.93.83,48.24,10.15,66.87,27.99,18.66,17.84,28,39.73,28,65.68Z"/>
    <path class="cls-1" d="M1960.61,449.39v1.84c-.12-.61-.25-1.23-.4-1.84h.4Z"/>
    <path class="cls-1" d="M1960.61,909.69v54.45h-.4v-52.67c.14-.59.27-1.18.4-1.77Z"/>
  </g>
  <path class="cls-1" d="M2744.38,886.31c23.52,0,46.02-5.68,67.5-17.04,21.5-11.36,40.77-27.17,57.81-47.44l6.08,3.64c-24.32,43.79-57.17,78.86-98.55,105.21-41.36,26.36-86.77,39.54-136.23,39.54s-97.52-13.78-139.29-41.36c-41.75-27.57-75.2-64.67-100.34-111.29-25.15-46.62-37.71-98.32-37.71-155.09s12.57-108.46,37.71-155.09c25.14-46.62,58.59-83.72,100.34-111.29,41.77-27.57,88.19-41.36,139.29-41.36,44.61,0,84.54,10.55,119.81,31.63,35.28,21.07,64.88,49.65,88.79,85.74,23.93,36.09,40.35,77.24,49.29,123.45h-352.77c0,53.52,8.92,102.37,26.76,146.57,17.84,44.2,41.76,79.28,71.76,105.24,30.01,25.95,63.27,38.92,99.75,38.92ZM2640.99,362.03c-17.02,0-31,6.29-41.94,18.86-10.95,12.58-20.08,28.8-27.38,48.67-7.31,19.86-12.58,40.33-15.83,61.42-3.23,21.07-5.66,40.54-7.28,58.39-1.63,17.84-2.44,30.82-2.44,38.92h187.34c-7.31-150.84-38.13-226.26-92.47-226.26Z"/>
  <path class="cls-1" d="M1903.11,450.39c-4.09-9.85-9.58-18.94-16.45-27.27-17.02-20.68-37.28-36.68-60.8-48.02-48.66-25.14-105.42-32.84-170.31-23.11-28.38,4.06-58.57,13.57-90.61,28.58-32.03,15-58.98,34.46-80.89,58.39-21.9,23.91-32.84,51.68-32.84,83.3,0,25.94,9.12,48.04,27.38,66.29,18.25,18.26,40.35,27.38,66.29,27.38s48.24-9.12,66.88-27.38c18.66-18.25,27.99-40.35,27.99-66.29,0-18.64-4.25-33.83-12.77-45.59-8.53-11.77-17.25-22.91-26.18-33.45-8.9-10.56-13.36-23.12-13.36-37.72,0-24.32,23.11-39.72,69.35-46.23,30-4.85,59.18-5.26,87.56-1.21s54.34,11.76,77.87,23.11c19.44,9.73,36.27,22.7,50.46,38.92,14.2,16.22,21.31,32.44,21.31,48.65,0,18.66-9.95,35.49-29.82,50.49-19.86,15-45.4,28.79-76.64,41.36-31.21,12.55-64.65,24.7-100.33,36.47-35.68,11.76-69.75,23.51-102.18,35.28-32.44,11.76-59.19,24.12-80.25,37.1-33.25,20.27-58.39,47.03-75.43,80.28-17.03,33.27-20.69,67.32-10.95,102.16,8.92,34.07,28.8,61.26,59.6,81.51,30.82,20.27,65.28,30.4,103.39,30.4,34.07,0,63.47-6.08,88.21-18.25,24.73-12.15,44.38-23.51,58.98-34.07v30.43c0,5.67,2.22,10.75,6.66,15.21,4.46,4.45,9.54,6.67,15.21,6.67h2.44l150.24-21.84.89-.12v-489.21c-.28-.74-.58-1.48-.89-2.22ZM1728.55,902.99c-12.99,9.71-28.6,12.95-46.85,9.72-18.24-3.25-34.24-12.16-48.02-26.76-12.99-13.78-22.72-31.82-29.21-54.13-6.48-22.31-8.9-48.04-7.28-77.23,2.42-34.07,10.94-61.85,25.52-83.32,14.61-21.49,31.83-38.51,51.69-51.08,19.87-12.57,37.92-22.51,54.14-29.82v312.62Z"/>
  <path class="cls-1" d="M1961.88,464.22v433.02c0,4.29-.42,8.45-1.26,12.46v-458.46c.84,4.14,1.26,8.47,1.26,12.98Z"/>
</svg>